<?xml version="1.0" encoding="UTF-8"?>
<svg id="_图层_1" data-name=" 图层 1" xmlns="http://www.w3.org/2000/svg" version="1.1" viewBox="0 0 3316.4 458.3">
  <defs>
    <style>
      .cls-1 {
        fill: #000;
        stroke-width: 0px;
      }
    </style>
  </defs>
  <polygon class="cls-1" points="321.8 330.2 321.8 458.3 190.1 458.3 190.1 458.4 132.2 458.4 132.2 458.3 52.4 458.3 52.4 458.4 .4 458.4 .4 329.8 52.4 329.8 52.4 304.3 96.2 304.3 96.2 189.2 190.1 189.2 190.1 247.6 257.5 247.6 257.5 330.2 321.8 330.2"/>
  <polygon class="cls-1" points="179.2 189.1 105.8 189.1 105.8 172.2 114.5 172.2 114.5 159.9 172.8 159.9 172.8 172.2 179.2 172.2 179.2 189.1"/>
  <rect class="cls-1" x="1606.7" y="329.8" width="52" height="128.6"/>
  <rect class="cls-1" x="1510.9" y="271.2" width="95.2" height="187.2"/>
  <polygon class="cls-1" points="465.3 227.7 493.9 227.7 493.9 458.4 436 458.4 436 458.3 420.9 458.3 420.9 458.3 340.8 458.3 340.8 186.9 420.9 186.9 420.9 381.1 436 381.1 436 381.2 465.3 381.2 465.3 227.7"/>
  <polygon class="cls-1" points="632.6 208.1 632.6 458.3 580.7 458.3 580.7 458.4 561.7 458.4 561.7 458.3 493.9 458.3 493.9 227.7 561.7 227.7 561.7 208.2 580.6 208.2 580.6 208.1 632.6 208.1"/>
  <polygon class="cls-1" points="854 99.2 854 458.4 789.4 458.4 789.4 458.3 830.7 458.3 830.7 458.3 733.8 458.3 733.8 458.4 662.7 458.4 662.7 236.6 719.6 236.6 719.6 11.5 725.4 11.5 725.4 .2 832.9 .2 832.9 11.5 838.7 11.5 838.7 99.2 854 99.2"/>
  <path class="cls-1" d="M994.5,172.6h0v-77.4h-8.9v-13.3h-96.2v13.4h-10.7v62.1h-17.3v301.1h151.3V172.6h-18.2,0ZM925.1,95.2h0ZM925.2,172.7h0Z"/>
  <polygon class="cls-1" points="969.1 81.9 901.9 81.9 901.9 65.7 911.7 65.7 911.7 57.6 961.3 57.6 961.3 65.7 969.1 65.7 969.1 81.9"/>
  <polygon class="cls-1" points="1050.5 113 1073.2 113 1073.2 141.7 1073.2 141.7 1073.2 169.2 1073.1 169.2 1073.1 458.3 1027.8 458.3 1027.8 169.2 1039.2 169.2 1039.2 141.7 1050.5 141.7 1050.5 113"/>
  <polygon class="cls-1" points="1118.5 141.7 1118.5 458.4 1089.2 458.4 1089.2 458.3 1073.2 458.3 1073.2 87.5 1076.4 87.5 1076.4 113 1097.6 113 1097.6 141.7 1118.5 141.7"/>
  <polygon class="cls-1" points="1500.6 189.2 1500.6 458.4 1126.2 458.4 1126.2 246.1 1200.4 246.1 1200.4 130.7 1296 130.7 1296 339.1 1406.7 339.1 1406.7 189.2 1500.6 189.2"/>
  <polygon class="cls-1" points="1489.8 189.1 1416.4 189.1 1416.4 172.2 1425 172.2 1425 172.2 1446.6 172.2 1446.6 172.2 1425 172.2 1425 159.9 1452.8 159.9 1452.8 117.1 1455.4 117.1 1455.4 159.9 1483.3 159.9 1483.3 172.2 1489.8 172.2 1489.8 189.1"/>
  <polygon class="cls-1" points="1980.1 330.1 1980.1 458.2 1848.4 458.2 1848.4 458.3 1790.5 458.3 1790.5 458.2 1710.7 458.2 1710.7 458.3 1658.7 458.3 1658.7 329.7 1710.7 329.7 1710.7 304.2 1754.5 304.2 1754.5 189.1 1848.4 189.1 1848.4 247.4 1915.8 247.4 1915.8 330.1 1980.1 330.1"/>
  <polygon class="cls-1" points="1837.5 188.9 1764.1 188.9 1764.1 172.1 1772.8 172.1 1772.8 159.8 1831.1 159.8 1831.1 172.1 1837.5 172.1 1837.5 188.9"/>
  <rect class="cls-1" x="3265" y="329.7" width="52" height="128.6"/>
  <rect class="cls-1" x="3169.2" y="271.1" width="95.2" height="187.2"/>
  <polygon class="cls-1" points="2123.6 227.6 2152.2 227.6 2152.2 458.3 2094.3 458.3 2094.3 458.2 2079.2 458.2 2079.2 458.2 1999.1 458.2 1999.1 186.8 2079.2 186.8 2079.2 380.9 2094.3 380.9 2094.3 381.1 2123.6 381.1 2123.6 227.6"/>
  <polygon class="cls-1" points="2290.9 207.9 2290.9 458.2 2239 458.2 2239 458.3 2220 458.3 2220 458.2 2152.2 458.2 2152.2 227.6 2220 227.6 2220 208.1 2238.9 208.1 2238.9 207.9 2290.9 207.9"/>
  <polygon class="cls-1" points="2512.3 99 2512.3 458.3 2447.7 458.3 2447.7 458.2 2489 458.2 2489 458.2 2392.1 458.2 2392.1 458.3 2321 458.3 2321 236.4 2377.9 236.4 2377.9 11.3 2383.7 11.3 2383.7 0 2491.2 0 2491.2 11.3 2497 11.3 2497 99 2512.3 99"/>
  <path class="cls-1" d="M2652.8,172.4h0v-77.4h-8.9v-13.3h-96.2v13.4h-10.7v62.1h-17.3v301.1h151.3V172.4h-18.2,0ZM2583.4,95h0ZM2583.5,172.6h0Z"/>
  <polygon class="cls-1" points="2627.4 81.8 2560.2 81.8 2560.2 65.5 2570 65.5 2570 57.4 2619.6 57.4 2619.6 65.5 2627.4 65.5 2627.4 81.8"/>
  <polygon class="cls-1" points="2708.8 112.8 2731.5 112.8 2731.5 141.6 2731.5 141.6 2731.5 169.1 2731.4 169.1 2731.4 458.2 2686.1 458.2 2686.1 169.1 2697.5 169.1 2697.5 141.6 2708.8 141.6 2708.8 112.8"/>
  <polygon class="cls-1" points="2776.8 141.6 2776.8 458.3 2747.5 458.3 2747.5 458.2 2731.5 458.2 2731.5 87.3 2734.7 87.3 2734.7 112.8 2755.9 112.8 2755.9 141.6 2776.8 141.6"/>
  <polygon class="cls-1" points="3158.9 189.1 3158.9 458.3 2784.5 458.3 2784.5 245.9 2858.7 245.9 2858.7 130.6 2954.3 130.6 2954.3 338.9 3065 338.9 3065 189.1 3158.9 189.1"/>
  <polygon class="cls-1" points="3148.1 188.9 3074.7 188.9 3074.7 172.1 3083.3 172.1 3083.3 172.1 3104.9 172.1 3104.9 172.1 3083.3 172.1 3083.3 159.8 3111.1 159.8 3111.1 116.9 3113.7 116.9 3113.7 159.8 3141.6 159.8 3141.6 172.1 3148.1 172.1 3148.1 188.9"/>
</svg>