<?xml version="1.0" encoding="UTF-8"?>
<svg id="_图层_1" data-name="图层 1" xmlns="http://www.w3.org/2000/svg" version="1.1" viewBox="0 0 171 78">
  <defs>
    <style>
      .cls-1 {
        fill: #fff;
        stroke-width: 0px;
      }
    </style>
  </defs>
  <path class="cls-1" d="M170,63.3v2.9c0,1.5-1.2,2.6-2.6,2.6h-18.1c-.7,5.2-5.1,9.2-10.4,9.2s-9.8-4-10.4-9.2h-9.2V18.9c0-2.4,1.9-4.3,4.3-4.3h19.1c3,0,5.8,1.5,7.5,3.9l13.9,19.7c.8,1.1,1.2,2.5,1.2,3.8v18.6h2.1c1.4.1,2.6,1.3,2.6,2.7Z"/>
  <path class="cls-1" d="M115.2,22.7h5v46.1h-5.1c0,0-44,0-44,0-.7,5.1-5.1,9.1-10.4,9.1s-9.7-4-10.4-9.1h-9.9c-.7,5.1-5.1,9.1-10.4,9.1s-9.7-4-10.4-9.1H2.6c-1.5,0-2.7-1.2-2.7-2.7v-3c0-1.5,1.2-2.7,2.7-2.7h3V5.5c0-3.1,2.4-5.5,5.5-5.5h98.6c3,0,5.5,2.4,5.5,5.5v17.2Z"/>
</svg>