<?xml version="1.0" encoding="UTF-8"?>
<svg id="_图层_1" data-name="图层 1" xmlns="http://www.w3.org/2000/svg" version="1.1" viewBox="0 0 200 200">
  <defs>
    <style>
      .cls-1 {
        fill: #5676b9;
      }

      .cls-1, .cls-2 {
        stroke-width: 0px;
      }

      .cls-2 {
        fill: #2c4078;
      }
    </style>
  </defs>
  <path class="cls-1" d="M38.9,33.3H5.6c-3.1,0-5.6,2.5-5.6,5.6v122.2c0,3.1,2.5,5.6,5.6,5.6h33.3c3.1,0,5.6-2.5,5.6-5.6V38.9c0-3.1-2.5-5.6-5.6-5.6ZM33.3,66.7H11.1v-11.1h22.2v11.1ZM94.4,33.3h-33.3c-3.1,0-5.6,2.5-5.6,5.6v122.2c0,3.1,2.5,5.6,5.6,5.6h33.3c3.1,0,5.6-2.5,5.6-5.6V38.9c0-3.1-2.5-5.6-5.6-5.6ZM88.9,66.7h-22.2v-11.1h22.2v11.1Z"/>
  <path class="cls-1" d="M132.8,41.9l-29.8,15c-2.7,1.4-3.8,4.7-2.5,7.5l50,99.2c1.4,2.7,4.7,3.8,7.5,2.5l29.8-15c2.7-1.4,3.8-4.7,2.5-7.5l-50-99.2c-1.4-2.7-4.7-3.8-7.5-2.5Z"/>
  <path class="cls-1" d="M161.1,161.1c0,3.1-2.5,5.6-5.6,5.6s-5.6-2.5-5.6-5.6,2.5-5.6,5.6-5.6,5.6,2.5,5.6,5.6Z"/>
  <rect class="cls-2" x="10" y="53.6" width="24.5" height="15.1" rx="3.2" ry="3.2"/>
  <rect class="cls-2" x="65.5" y="53.6" width="24.5" height="15.1" rx="3.2" ry="3.2"/>
</svg>